<svg display="none" width="0" height="0" version="1.1" xmlns="http://www.w3.org/2000/svg">
    <defs>
        <symbol id="play" viewBox="0 0 448 512">
            <path d="M424.4 214.7L72.4 6.6C43.8-10.3 0 6.1 0 47.9V464c0 37.5 40.7 60.1 72.4 41.3l352-208c31.4-18.5 31.5-64.1 0-82.6z"/>
        </symbol>
    </defs>
    <defs>
        <symbol id="stop" viewBox="0 0 448 512">
            <path d="M400 32H48C21.5 32 0 53.5 0 80v352c0 26.5 21.5 48 48 48h352c26.5 0 48-21.5 48-48V80c0-26.5-21.5-48-48-48z"/>
        </symbol>
    </defs>
    <defs>
        <symbol id="next" viewBox="0 0 320 512">
            <path d="M285.476 272.971L91.132 467.314c-9.373 9.373-24.569 9.373-33.941 0l-22.667-22.667c-9.357-9.357-9.375-24.522-.04-33.901L188.505 256 34.484 101.255c-9.335-9.379-9.317-24.544.04-33.901l22.667-22.667c9.373-9.373 24.569-9.373 33.941 0L285.475 239.03c9.373 9.372 9.373 24.568.001 33.941z"/>
        </symbol>
    </defs>
    <defs>
        <symbol id="previous" viewBox="0 0 320 512">
            <path d="M34.52 239.03L228.87 44.69c9.37-9.37 24.57-9.37 33.94 0l22.67 22.67c9.36 9.36 9.37 24.52.04 33.9L131.49 256l154.02 154.75c9.34 9.38 9.32 24.54-.04 33.9l-22.67 22.67c-9.37 9.37-24.57 9.37-33.94 0L34.52 272.97c-9.37-9.37-9.37-24.57 0-33.94z"/>
        </symbol>
    </defs>
    <defs>
        <symbol id="backward" viewBox="0 0 448 512">
            <path d="M64 468V44c0-6.6 5.4-12 12-12h48c6.6 0 12 5.4 12 12v176.4l195.5-181C352.1 22.3 384 36.6 384 64v384c0 27.4-31.9 41.7-52.5 24.6L136 292.7V468c0 6.6-5.4 12-12 12H76c-6.6 0-12-5.4-12-12z"/>
        </symbol>
    </defs>
    <defs>
        <symbol id="forward" viewBox="0 0 448 512">
            <path d="M384 44v424c0 6.6-5.4 12-12 12h-48c-6.6 0-12-5.4-12-12V291.6l-195.5 181C95.9 489.7 64 475.4 64 448V64c0-27.4 31.9-41.7 52.5-24.6L312 219.3V44c0-6.6 5.4-12 12-12h48c6.6 0 12 5.4 12 12z"/>
        </symbol>
    </defs>
    <defs>
        <symbol id="home" viewBox="0 0 576 512">
            <path d="M280.37 148.26L96 300.11V464a16 16 0 0 0 16 16l112.06-.29a16 16 0 0 0 15.92-16V368a16 16 0 0 1 16-16h64a16 16 0 0 1 16 16v95.64a16 16 0 0 0 16 16.05L464 480a16 16 0 0 0 16-16V300L295.67 148.26a12.19 12.19 0 0 0-15.3 0zM571.6 251.47L488 182.56V44.05a12 12 0 0 0-12-12h-56a12 12 0 0 0-12 12v72.61L318.47 43a48 48 0 0 0-61 0L4.34 251.47a12 12 0 0 0-1.6 16.9l25.5 31A12 12 0 0 0 45.15 301l235.22-193.74a12.19 12.19 0 0 1 15.3 0L530.9 301a12 12 0 0 0 16.9-1.6l25.5-31a12 12 0 0 0-1.7-16.93z"/>
        </symbol>
    </defs>
    <defs>
        <symbol id="logout" viewBox="0 0 512 512">
            <path d="M497 273L329 441c-15 15-41 4.5-41-17v-96H152c-13.3 0-24-10.7-24-24v-96c0-13.3 10.7-24 24-24h136V88c0-21.4 25.9-32 41-17l168 168c9.3 9.4 9.3 24.6 0 34zM192 436v-40c0-6.6-5.4-12-12-12H96c-17.7 0-32-14.3-32-32V160c0-17.7 14.3-32 32-32h84c6.6 0 12-5.4 12-12V76c0-6.6-5.4-12-12-12H96c-53 0-96 43-96 96v192c0 53 43 96 96 96h84c6.6 0 12-5.4 12-12z"/>
        </symbol>
    </defs>
</svg>